<mxfile host="65bd71144e">
    <diagram id="sMz4HR3JvMUzRei4bx3y" name="Page-1">
        <mxGraphModel dx="898" dy="328" grid="1" gridSize="10" guides="1" tooltips="1" connect="1" arrows="1" fold="1" page="1" pageScale="1" pageWidth="827" pageHeight="1169" math="0" shadow="0">
            <root>
                <mxCell id="0"/>
                <mxCell id="1" parent="0"/>
                <mxCell id="2" value="0" style="whiteSpace=wrap;html=1;aspect=fixed;" parent="1" vertex="1">
                    <mxGeometry x="80" y="80" width="40" height="40" as="geometry"/>
                </mxCell>
                <mxCell id="3" value="1" style="whiteSpace=wrap;html=1;aspect=fixed;" parent="1" vertex="1">
                    <mxGeometry x="120" y="80" width="40" height="40" as="geometry"/>
                </mxCell>
                <mxCell id="4" value="2" style="whiteSpace=wrap;html=1;aspect=fixed;" parent="1" vertex="1">
                    <mxGeometry x="160" y="80" width="40" height="40" as="geometry"/>
                </mxCell>
                <mxCell id="5" value="3" style="whiteSpace=wrap;html=1;aspect=fixed;" parent="1" vertex="1">
                    <mxGeometry x="200" y="80" width="40" height="40" as="geometry"/>
                </mxCell>
                <mxCell id="6" value="\n" style="whiteSpace=wrap;html=1;aspect=fixed;" parent="1" vertex="1">
                    <mxGeometry x="240" y="80" width="40" height="40" as="geometry"/>
                </mxCell>
                <mxCell id="7" value="5" style="whiteSpace=wrap;html=1;aspect=fixed;" parent="1" vertex="1">
                    <mxGeometry x="80" y="120" width="40" height="40" as="geometry"/>
                </mxCell>
                <mxCell id="8" value="6" style="whiteSpace=wrap;html=1;aspect=fixed;" parent="1" vertex="1">
                    <mxGeometry x="120" y="120" width="40" height="40" as="geometry"/>
                </mxCell>
                <mxCell id="9" value="\n" style="whiteSpace=wrap;html=1;aspect=fixed;" parent="1" vertex="1">
                    <mxGeometry x="160" y="120" width="40" height="40" as="geometry"/>
                </mxCell>
                <mxCell id="10" value="8" style="whiteSpace=wrap;html=1;aspect=fixed;" parent="1" vertex="1">
                    <mxGeometry x="80" y="160" width="40" height="40" as="geometry"/>
                </mxCell>
                <mxCell id="11" value="9" style="whiteSpace=wrap;html=1;aspect=fixed;" parent="1" vertex="1">
                    <mxGeometry x="120" y="160" width="40" height="40" as="geometry"/>
                </mxCell>
                <mxCell id="14" value="（0,0）" style="text;html=1;strokeColor=none;align=center;verticalAlign=middle;whiteSpace=wrap;rounded=0;fillColor=#FFFF99;" parent="1" vertex="1">
                    <mxGeometry x="66" y="70" width="30" height="20" as="geometry"/>
                </mxCell>
                <mxCell id="15" value="（0,1）" style="text;html=1;strokeColor=none;align=center;verticalAlign=middle;whiteSpace=wrap;rounded=0;fillColor=#FFFF99;" parent="1" vertex="1">
                    <mxGeometry x="106" y="68" width="30" height="20" as="geometry"/>
                </mxCell>
                <mxCell id="16" value="（0,2）" style="text;html=1;strokeColor=none;align=center;verticalAlign=middle;whiteSpace=wrap;rounded=0;fillColor=#FFFF99;" parent="1" vertex="1">
                    <mxGeometry x="150" y="68" width="30" height="20" as="geometry"/>
                </mxCell>
                <mxCell id="17" value="（0,3）" style="text;html=1;strokeColor=none;align=center;verticalAlign=middle;whiteSpace=wrap;rounded=0;fillColor=#FFFF99;" parent="1" vertex="1">
                    <mxGeometry x="190" y="68" width="30" height="20" as="geometry"/>
                </mxCell>
                <mxCell id="18" value="（0,4）" style="text;html=1;strokeColor=none;align=center;verticalAlign=middle;whiteSpace=wrap;rounded=0;fillColor=#FFFF99;" parent="1" vertex="1">
                    <mxGeometry x="230" y="70" width="30" height="20" as="geometry"/>
                </mxCell>
                <mxCell id="19" value="（1,0）" style="text;html=1;strokeColor=none;align=center;verticalAlign=middle;whiteSpace=wrap;rounded=0;fillColor=#FFFF99;" parent="1" vertex="1">
                    <mxGeometry x="66" y="110" width="30" height="20" as="geometry"/>
                </mxCell>
                <mxCell id="20" value="（1,1）" style="text;html=1;strokeColor=none;align=center;verticalAlign=middle;whiteSpace=wrap;rounded=0;fillColor=#FFFF99;" parent="1" vertex="1">
                    <mxGeometry x="106" y="110" width="30" height="20" as="geometry"/>
                </mxCell>
                <mxCell id="21" value="（1,2）" style="text;html=1;strokeColor=none;align=center;verticalAlign=middle;whiteSpace=wrap;rounded=0;fillColor=#FFFF99;" parent="1" vertex="1">
                    <mxGeometry x="146" y="110" width="30" height="20" as="geometry"/>
                </mxCell>
                <mxCell id="23" value="（2,0）" style="text;html=1;strokeColor=none;align=center;verticalAlign=middle;whiteSpace=wrap;rounded=0;fillColor=#FFFF99;" parent="1" vertex="1">
                    <mxGeometry x="66" y="150" width="30" height="20" as="geometry"/>
                </mxCell>
                <mxCell id="24" value="（2,1）" style="text;html=1;strokeColor=none;align=center;verticalAlign=middle;whiteSpace=wrap;rounded=0;fillColor=#FFFF99;" parent="1" vertex="1">
                    <mxGeometry x="106" y="150" width="30" height="20" as="geometry"/>
                </mxCell>
                <mxCell id="25" value="（2,2）" style="text;html=1;strokeColor=none;align=center;verticalAlign=middle;whiteSpace=wrap;rounded=0;fillColor=#FFFF99;" parent="1" vertex="1">
                    <mxGeometry x="146" y="150" width="30" height="20" as="geometry"/>
                </mxCell>
                <mxCell id="28" value="&lt;h1&gt;&lt;span style=&quot;font-size: 12px ; font-weight: normal&quot;&gt;1. (r&lt;/span&gt;&lt;span style=&quot;font-size: 12px ; font-weight: normal&quot;&gt;&lt;font style=&quot;font-size: 13px&quot;&gt;ow, column) 光标在 (row, column) 字符的左边&lt;/font&gt;&lt;/span&gt;&lt;br&gt;&lt;/h1&gt;&lt;div&gt;&lt;h1&gt;&lt;span style=&quot;font-weight: normal&quot;&gt;&lt;font style=&quot;font-size: 13px&quot;&gt;2. 换行符 （\n）也是一个字符&lt;/font&gt;&lt;/span&gt;&lt;/h1&gt;&lt;/div&gt;&lt;div&gt;&lt;span style=&quot;font-weight: normal&quot;&gt;&lt;font style=&quot;font-size: 13px&quot;&gt;3. 最后一个光标在最后一个字符的右边。&lt;/font&gt;&lt;/span&gt;&lt;/div&gt;&lt;div&gt;&lt;span style=&quot;font-weight: normal&quot;&gt;&lt;font style=&quot;font-size: 13px&quot;&gt;&lt;br&gt;&lt;/font&gt;&lt;/span&gt;&lt;/div&gt;&lt;div&gt;&lt;span style=&quot;font-weight: normal&quot;&gt;&lt;font style=&quot;font-size: 13px&quot;&gt;4. 当尾行为空时，是一种特殊情况。&lt;/font&gt;&lt;/span&gt;&lt;/div&gt;" style="text;html=1;strokeColor=none;fillColor=none;spacing=5;spacingTop=-20;whiteSpace=wrap;overflow=hidden;rounded=0;" parent="1" vertex="1">
                    <mxGeometry x="20" y="240" width="504" height="150" as="geometry"/>
                </mxCell>
                <mxCell id="66" value="a" style="whiteSpace=wrap;html=1;aspect=fixed;" parent="1" vertex="1">
                    <mxGeometry x="380" y="80" width="40" height="40" as="geometry"/>
                </mxCell>
                <mxCell id="67" value="你" style="whiteSpace=wrap;html=1;aspect=fixed;" parent="1" vertex="1">
                    <mxGeometry x="420" y="80" width="40" height="40" as="geometry"/>
                </mxCell>
                <mxCell id="68" value="\n" style="whiteSpace=wrap;html=1;aspect=fixed;" parent="1" vertex="1">
                    <mxGeometry x="460" y="80" width="40" height="40" as="geometry"/>
                </mxCell>
                <mxCell id="69" value="（0,0）" style="text;html=1;strokeColor=none;align=center;verticalAlign=middle;whiteSpace=wrap;rounded=0;fillColor=#FFFF99;" parent="1" vertex="1">
                    <mxGeometry x="366" y="70" width="30" height="20" as="geometry"/>
                </mxCell>
                <mxCell id="70" value="（0,1）" style="text;html=1;strokeColor=none;align=center;verticalAlign=middle;whiteSpace=wrap;rounded=0;fillColor=#FFFF99;" parent="1" vertex="1">
                    <mxGeometry x="407" y="70" width="30" height="20" as="geometry"/>
                </mxCell>
                <mxCell id="71" value="（0,2）" style="text;html=1;strokeColor=none;align=center;verticalAlign=middle;whiteSpace=wrap;rounded=0;fillColor=#FFFF99;" parent="1" vertex="1">
                    <mxGeometry x="450" y="70" width="30" height="20" as="geometry"/>
                </mxCell>
                <mxCell id="72" value="（1,0）" style="text;html=1;strokeColor=none;align=center;verticalAlign=middle;whiteSpace=wrap;rounded=0;fillColor=#FFFF99;" parent="1" vertex="1">
                    <mxGeometry x="366" y="110" width="30" height="20" as="geometry"/>
                </mxCell>
                <mxCell id="73" value="0" style="whiteSpace=wrap;html=1;aspect=fixed;" vertex="1" parent="1">
                    <mxGeometry x="555" y="104" width="40" height="40" as="geometry"/>
                </mxCell>
                <mxCell id="74" value="1" style="whiteSpace=wrap;html=1;aspect=fixed;" vertex="1" parent="1">
                    <mxGeometry x="595" y="104" width="40" height="40" as="geometry"/>
                </mxCell>
                <mxCell id="75" value="2" style="whiteSpace=wrap;html=1;aspect=fixed;" vertex="1" parent="1">
                    <mxGeometry x="635" y="104" width="40" height="40" as="geometry"/>
                </mxCell>
                <mxCell id="76" value="3" style="whiteSpace=wrap;html=1;aspect=fixed;" vertex="1" parent="1">
                    <mxGeometry x="675" y="104" width="40" height="40" as="geometry"/>
                </mxCell>
                <mxCell id="77" value="\n" style="whiteSpace=wrap;html=1;aspect=fixed;" vertex="1" parent="1">
                    <mxGeometry x="715" y="104" width="40" height="40" as="geometry"/>
                </mxCell>
                <mxCell id="78" value="5" style="whiteSpace=wrap;html=1;aspect=fixed;" vertex="1" parent="1">
                    <mxGeometry x="555" y="144" width="40" height="40" as="geometry"/>
                </mxCell>
                <mxCell id="79" value="6" style="whiteSpace=wrap;html=1;aspect=fixed;" vertex="1" parent="1">
                    <mxGeometry x="595" y="144" width="40" height="40" as="geometry"/>
                </mxCell>
                <mxCell id="80" value="\n" style="whiteSpace=wrap;html=1;aspect=fixed;" vertex="1" parent="1">
                    <mxGeometry x="635" y="144" width="40" height="40" as="geometry"/>
                </mxCell>
                <mxCell id="81" value="8" style="whiteSpace=wrap;html=1;aspect=fixed;" vertex="1" parent="1">
                    <mxGeometry x="555" y="184" width="40" height="40" as="geometry"/>
                </mxCell>
                <mxCell id="82" value="9" style="whiteSpace=wrap;html=1;aspect=fixed;" vertex="1" parent="1">
                    <mxGeometry x="595" y="184" width="40" height="40" as="geometry"/>
                </mxCell>
                <mxCell id="83" value="0" style="text;html=1;strokeColor=none;align=center;verticalAlign=middle;whiteSpace=wrap;rounded=0;fillColor=#FFFF99;" vertex="1" parent="1">
                    <mxGeometry x="541" y="94" width="30" height="20" as="geometry"/>
                </mxCell>
                <mxCell id="84" value="1" style="text;html=1;strokeColor=none;align=center;verticalAlign=middle;whiteSpace=wrap;rounded=0;fillColor=#FFFF99;" vertex="1" parent="1">
                    <mxGeometry x="581" y="92" width="30" height="20" as="geometry"/>
                </mxCell>
                <mxCell id="85" value="2" style="text;html=1;strokeColor=none;align=center;verticalAlign=middle;whiteSpace=wrap;rounded=0;fillColor=#FFFF99;" vertex="1" parent="1">
                    <mxGeometry x="625" y="92" width="30" height="20" as="geometry"/>
                </mxCell>
                <mxCell id="86" value="3" style="text;html=1;strokeColor=none;align=center;verticalAlign=middle;whiteSpace=wrap;rounded=0;fillColor=#FFFF99;" vertex="1" parent="1">
                    <mxGeometry x="665" y="92" width="30" height="20" as="geometry"/>
                </mxCell>
                <mxCell id="87" value="4" style="text;html=1;strokeColor=none;align=center;verticalAlign=middle;whiteSpace=wrap;rounded=0;fillColor=#FFFF99;" vertex="1" parent="1">
                    <mxGeometry x="705" y="94" width="30" height="20" as="geometry"/>
                </mxCell>
                <mxCell id="88" value="5" style="text;html=1;strokeColor=none;align=center;verticalAlign=middle;whiteSpace=wrap;rounded=0;fillColor=#FFFF99;" vertex="1" parent="1">
                    <mxGeometry x="541" y="134" width="30" height="20" as="geometry"/>
                </mxCell>
                <mxCell id="89" value="6" style="text;html=1;strokeColor=none;align=center;verticalAlign=middle;whiteSpace=wrap;rounded=0;fillColor=#FFFF99;" vertex="1" parent="1">
                    <mxGeometry x="581" y="134" width="30" height="20" as="geometry"/>
                </mxCell>
                <mxCell id="90" value="7" style="text;html=1;strokeColor=none;align=center;verticalAlign=middle;whiteSpace=wrap;rounded=0;fillColor=#FFFF99;" vertex="1" parent="1">
                    <mxGeometry x="621" y="134" width="30" height="20" as="geometry"/>
                </mxCell>
                <mxCell id="91" value="8" style="text;html=1;strokeColor=none;align=center;verticalAlign=middle;whiteSpace=wrap;rounded=0;fillColor=#FFFF99;" vertex="1" parent="1">
                    <mxGeometry x="541" y="174" width="30" height="20" as="geometry"/>
                </mxCell>
                <mxCell id="92" value="9" style="text;html=1;strokeColor=none;align=center;verticalAlign=middle;whiteSpace=wrap;rounded=0;fillColor=#FFFF99;" vertex="1" parent="1">
                    <mxGeometry x="581" y="174" width="30" height="20" as="geometry"/>
                </mxCell>
                <mxCell id="93" value="10" style="text;html=1;strokeColor=none;align=center;verticalAlign=middle;whiteSpace=wrap;rounded=0;fillColor=#FFFF99;" vertex="1" parent="1">
                    <mxGeometry x="621" y="174" width="30" height="20" as="geometry"/>
                </mxCell>
            </root>
        </mxGraphModel>
    </diagram>
</mxfile>